# xmcd CD database file
#
# Track frame offsets:
#	150
#	15347
#	30787
#	50974
#	67565
#	90135
#	104235
#	120294
#	135819
#	150178
#	171259
#	196185
#	213660
#
# Disc length: 3012 seconds
#
# Revision: 0
# Processed by: cddbd v1.5.2PL0 Copyright (c) Steve Scherf et al.
# Submitted via: CDex 1.79
#
DISCID=900bc20d
DTITLE=Katrein - Hopeful romantic
DYEAR=2004
DGENRE=Jazz
TTITLE0=Kiss me
TTITLE1=What was that fuss
TTITLE2=Il dolce far niente
TTITLE3=Hopeful romantic
TTITLE4=Cry me a river
TTITLE5=Cuss the blues
TTITLE6=Found my way
TTITLE7=I'm just laughin
TTITLE8=I'll be easy to find
TTITLE9=Madrid
TTITLE10=Need your love so bad
TTITLE11=Come rain or come shine
TTITLE12=Meditation
EXTD=YEAR: 2004
EXTT0=
EXTT1=
EXTT2=
EXTT3=
EXTT4=
EXTT5=
EXTT6=
EXTT7=
EXTT8=
EXTT9=
EXTT10=
EXTT11=
EXTT12=
PLAYORDER=
